<svg width="68" height="63" viewBox="0 0 68 63" fill="none" xmlns="http://www.w3.org/2000/svg">
<path d="M33.6373 62.3177C52.2147 62.3177 67.2746 48.4581 67.2746 31.3615C67.2746 14.2648 52.2147 0.405273 33.6373 0.405273C15.06 0.405273 0 14.2648 0 31.3615C0 48.4581 15.06 62.3177 33.6373 62.3177Z" fill="white"/>
<path d="M39.1628 46.001H23.5753L20.861 33.2081H40.6169L39.1628 46.001Z" fill="#350A01"/>
<path d="M35.0719 40.6928H27.569V44.6805H35.0719V40.6928Z" fill="#EEAD8B"/>
<g style="mix-blend-mode:multiply">
<path d="M29.6725 43.7527C30.8402 43.7268 31.9801 43.4192 32.9781 42.8606C33.696 42.4538 34.3161 41.9165 34.8005 41.2816C34.8996 41.1529 34.9903 41.0188 35.0719 40.8801V40.7374H27.569V43.7259C28.2685 43.7838 28.9716 43.7927 29.6725 43.7527Z" fill="#CCCCCC"/>
</g>
<path d="M40.6168 29.8358C40.6168 23.4304 36.4485 19.7549 31.3011 19.7281H31.1945C26.0374 19.7281 21.8787 23.4304 21.8787 29.8358C21.8787 38.1324 28.3638 42.9676 31.2332 42.9944C34.1219 43.0033 40.6168 38.1324 40.6168 29.8358Z" fill="#EEAD8B"/>
<path d="M39.6959 32.2L39.1627 35.9736C41.2663 36.8658 41.5862 32.4052 41.5862 32.4052C41.1015 31.2811 39.6959 32.2 39.6959 32.2Z" fill="#EEAD8B"/>
<path d="M21.1422 32.3872C21.1422 32.3872 21.4718 36.8477 23.5753 35.9556L23.0324 32.182C23.0324 32.182 21.6268 31.281 21.1422 32.3872Z" fill="#EEAD8B"/>
<path d="M27.5399 44.3862L18.515 46.9555C17.5582 47.1508 16.68 47.5885 15.9794 48.2191C15.2787 48.8497 14.7837 49.6481 14.5503 50.524L13.1641 56.0104H49.3313L47.9452 50.524C47.7117 49.6481 47.2166 48.8497 46.516 48.2191C45.8154 47.5885 44.9371 47.1508 43.9804 46.9555L34.9265 44.3862H27.5399Z" fill="#EEAD8B"/>
<path d="M41.7122 51.2111L42.3423 46.4561L40.2484 45.8584C40.2484 45.8584 38.678 52.3351 31.3108 53.361C23.9532 52.3351 22.3732 45.8584 22.3732 45.8584L20.289 46.4561L20.9191 51.2111C20.2439 52.7202 20.0067 54.3649 20.2308 55.9839H42.4004C42.6245 54.3649 42.3873 52.7202 41.7122 51.2111Z" fill="#FF8001"/>
<path d="M26.8129 22.4848C26.8129 22.4848 28.4123 26.9454 35.9734 29.3452C35.9734 29.3452 41.7315 30.0053 42.507 32.191C42.507 32.191 44.31 24.9381 40.5682 21.1734C40.5682 21.1734 34.6066 14.3845 26.7644 19.7639C26.8129 19.7282 25.3782 20.2367 26.8129 22.4848Z" fill="#751502"/>
<path d="M26.7159 20.0405C26.7159 20.0405 17.817 21.6731 21.9562 31.8431C21.9562 31.8431 22.4991 24.3316 27.9373 24.278L26.7159 20.0405Z" fill="#751502"/>
<path d="M25.3297 46.0008C25.3297 46.0008 18.0788 44.8946 19.0191 35.1795C19.0191 35.1795 19.3003 24.0638 23.1002 22.3064L23.7302 26.4993C23.7302 26.4993 20.8609 34.5818 25.3297 46.0008Z" fill="#751502"/>
<path d="M38.2517 46.0008C38.2517 46.0008 45.5024 44.8946 44.5621 35.1795C44.5621 35.1795 44.281 24.0638 40.4715 22.3064L39.1725 26.1246C39.1725 26.1246 41.5475 39.6222 38.2517 46.0008Z" fill="#751502"/>
<path d="M27.9471 19.6299C27.6272 20.3436 28.044 21.4141 28.1312 22.217C28.4899 22.0921 28.5384 21.646 28.8874 21.4498C29.1685 21.9404 29.3624 22.5025 29.6532 23.011C30.1837 24.0706 30.9459 25.0181 31.8924 25.7943C32.1347 25.4821 32.0475 25.0896 32.0766 24.6971C32.6629 25.4187 33.3113 26.0959 34.0153 26.7221C34.0153 26.508 34.0735 26.2404 34.0153 26.0263C34.9168 26.4634 35.5178 27.5964 36.4774 27.8997C36.4774 27.6767 36.5744 27.4894 36.5938 27.2842C37.176 27.7643 37.7948 28.2055 38.4453 28.6045C38.7846 28.7472 39.4146 28.6759 39.7539 28.9881C39.8079 28.3707 39.5955 27.7585 39.1626 27.2842C39.1434 27.4204 39.1109 27.5547 39.0657 27.6856C38.8779 27.395 38.6497 27.1281 38.3871 26.8916V27.195C38.3871 27.1147 38.1254 26.8827 38.0575 26.7489C38.0161 26.8686 37.9838 26.9909 37.9606 27.1147C37.6601 26.8292 37.4759 26.2226 36.9427 26.2226C36.9427 26.3385 36.7877 26.6775 36.7974 26.7578C36.6908 26.3029 36.3709 25.6962 35.828 25.6605C35.828 25.7765 35.6729 26.0085 35.6632 26.0887C35.5862 25.866 35.4787 25.6531 35.3434 25.4553C35.2658 25.5 35.2173 25.5535 35.1494 25.5981C34.8392 25.0361 34.9071 24.2599 34.5484 23.7425C34.4211 23.987 34.3612 24.2567 34.374 24.5276C34.3366 24.2702 34.2187 24.0285 34.0346 23.8317C34.0346 23.9209 33.8215 24.1083 33.773 24.2242C33.5888 23.8763 33.2301 22.8593 32.9878 23.7603C32.8486 23.5356 32.7318 23.2997 32.6388 23.0556C32.5709 23.2072 32.2995 23.4749 32.2316 23.6087C32.0862 23.1983 31.7954 22.4757 31.398 23.0467C31.3689 22.7118 31.2148 22.3966 30.9618 22.1545C30.9635 22.3913 30.9374 22.6276 30.8842 22.8593C30.8894 22.4104 30.7288 21.9732 30.4286 21.6193C30.366 21.8099 30.3398 22.0092 30.3511 22.2081C30.3809 21.8046 30.2832 21.4019 30.07 21.0483C30.0021 21.0483 30.0119 21.1554 30.0022 21.1643C29.9204 20.6406 29.6509 20.157 29.2363 19.7905L28.9746 19.8529C28.897 19.6923 28.7323 19.6031 28.6547 19.4693C28.5941 19.6678 28.5519 19.8708 28.5287 20.0759C28.4512 19.7548 28.267 19.5853 27.9471 19.7012" fill="#8F1A00"/>
<path d="M26.4931 21.673C26.2992 22.012 26.6482 22.7793 26.8421 23.145C26.8257 23.0077 26.7557 22.8805 26.6452 22.787C26.5346 22.6935 26.3911 22.64 26.2411 22.6365C26.2265 22.8355 26.2265 23.0352 26.2411 23.2342C26.1247 22.9488 25.9889 22.9934 25.8048 22.8685C25.7259 23.1173 25.6963 23.3772 25.7176 23.6357C25.4844 23.5845 25.2572 23.5128 25.039 23.4216C24.9324 23.6803 24.9711 24.0015 24.8742 24.2602C24.7579 24.1353 24.6222 24.1174 24.5349 24.055C24.6222 24.501 24.2829 24.5456 24.186 24.7508C24.0094 25.1095 23.8603 25.4792 23.74 25.857C23.6333 25.6429 23.4298 25.4467 23.3038 25.2326C23.1979 25.663 23.1426 26.1027 23.139 26.544C23.0985 26.5172 23.0522 26.4989 23.0032 26.4904C23.0032 26.7759 22.8773 27.0614 22.8094 27.338C22.8094 27.1685 22.6736 26.999 22.6349 26.8205C22.5833 27.1518 22.551 27.4853 22.5379 27.8197C22.4386 27.7676 22.3349 27.7228 22.2278 27.6859C22.1562 27.9787 22.1205 28.2779 22.1212 28.578C22.1212 28.6404 22.1212 28.6404 22.1212 28.578C22.1212 28.5155 22.1211 28.4977 22.0532 28.5066C22.0178 28.7187 21.9627 28.9276 21.8885 29.1311C21.6508 28.723 21.4715 28.2881 21.3553 27.8375C21.3553 27.8375 21.2972 27.8375 21.2875 27.8375C21.2632 27.5882 21.2632 27.3375 21.2875 27.0882C21.3663 27.1048 21.444 27.1257 21.5202 27.1506C21.6197 26.8873 21.6528 26.6067 21.6171 26.3299C21.6171 26.4548 21.6752 26.6153 21.6849 26.6778C21.7033 26.4691 21.7456 26.2628 21.8109 26.0622C21.9175 26.0622 22.1793 26.0622 22.2956 26.1158C22.2898 25.7212 22.3588 25.3288 22.4992 24.956C22.4992 25.0095 22.6931 25.1255 22.7416 25.179C22.7852 25.0538 22.8176 24.9255 22.8385 24.7954C22.8385 24.7954 22.9548 24.8846 22.9742 24.8579C23.0237 24.6071 23.1186 24.3658 23.2553 24.1442C23.3231 24.2691 23.5849 24.4297 23.6625 24.5456C23.74 24.2334 23.7691 23.939 23.8757 23.6535C23.8957 23.7237 23.9217 23.7923 23.9533 23.8587C24.049 23.5472 24.1857 23.2476 24.3604 22.9666C24.4427 22.9821 24.5237 23.0029 24.6027 23.029C24.6609 22.8328 24.8839 22.699 24.9614 22.5562C25.0486 22.6187 25.2425 22.6633 25.3104 22.7168C25.3685 22.5384 25.5916 22.351 25.6497 22.1726C25.7467 22.1726 25.7272 22.2351 25.8048 22.2351C25.8629 22.0299 25.9889 22.0299 26.1634 21.9317" fill="#8F1A00"/>
</svg>
